<?xml version="1.0" encoding="UTF-8" standalone="no"?>
<!-- Created with Inkscape (http://www.inkscape.org/) -->

<svg
   xmlns:dc="http://purl.org/dc/elements/1.1/"
   xmlns:cc="http://creativecommons.org/ns#"
   xmlns:rdf="http://www.w3.org/1999/02/22-rdf-syntax-ns#"
   xmlns:svg="http://www.w3.org/2000/svg"
   xmlns="http://www.w3.org/2000/svg"
   xmlns:sodipodi="http://sodipodi.sourceforge.net/DTD/sodipodi-0.dtd"
   xmlns:inkscape="http://www.inkscape.org/namespaces/inkscape"
   sodipodi:docname="curves.svg"
   height="32"
   id="svg7384"
   inkscape:version="0.91 r13725"
   version="1.1"
   width="32">
  <metadata
     id="metadata90">
    <rdf:RDF>
      <cc:Work
         rdf:about="">
        <dc:format>image/svg+xml</dc:format>
        <dc:type
           rdf:resource="http://purl.org/dc/dcmitype/StillImage" />
        <dc:title>Gnome Symbolic Icon Theme</dc:title>
      </cc:Work>
    </rdf:RDF>
  </metadata>
  <sodipodi:namedview
     inkscape:bbox-nodes="true"
     inkscape:bbox-paths="true"
     bordercolor="#666666"
     borderopacity="1"
     inkscape:current-layer="layer9"
     inkscape:cx="-140.52067"
     inkscape:cy="22.432955"
     gridtolerance="10"
     inkscape:guide-bbox="true"
     guidetolerance="10"
     id="namedview88"
     inkscape:object-nodes="false"
     inkscape:object-paths="false"
     objecttolerance="10"
     pagecolor="#433342"
     inkscape:pageopacity="1"
     inkscape:pageshadow="2"
     showborder="false"
     showgrid="false"
     showguides="true"
     inkscape:snap-bbox="true"
     inkscape:snap-bbox-midpoints="false"
     inkscape:snap-global="true"
     inkscape:snap-grids="true"
     inkscape:snap-nodes="true"
     inkscape:snap-others="false"
     inkscape:snap-page="false"
     inkscape:snap-to-guides="true"
     inkscape:window-height="1311"
     inkscape:window-maximized="1"
     inkscape:window-width="2560"
     inkscape:window-x="0"
     inkscape:window-y="55"
     inkscape:zoom="4">
    <inkscape:grid
       empspacing="2"
       enabled="true"
       id="grid4866"
       originx="140px"
       originy="60px"
       snapvisiblegridlinesonly="true"
       spacingx="1px"
       spacingy="1px"
       type="xygrid"
       visible="true" />
  </sodipodi:namedview>
  <title
     id="title9167">Gnome Symbolic Icon Theme</title>
  <defs
     id="defs7386" />
  <g
     inkscape:groupmode="layer"
     id="layer9"
     inkscape:label="tools"
     style="display:inline"
     transform="translate(-101.0002,-261)">
    <path
       inkscape:connector-curvature="0"
       d="m 101.0002,261 0,32 32,0 0,-32 -32,0 z m 2.28571,2.28571 27.42858,0 0,27.42858 -27.42858,0 0,-27.42858 z"
       id="rect5105"
       style="fill:#808080;fill-opacity:1;stroke:none" />
    <path
       inkscape:connector-curvature="0"
       d="m 131.57163,266.14286 c -2.42814,8.2832 -4.71936,12.5741 -6.42857,14.21428 -0.85461,0.82009 -1.47676,0.97203 -2.07143,0.92857 -0.59468,-0.0434 -1.28775,-0.41552 -2.07143,-1.07142 -1.56734,-1.31182 -3.20094,-3.69916 -4.92857,-5.71429 -0.86382,-1.00757 -1.77552,-1.93216 -2.78572,-2.57143 -1.01019,-0.63927 -2.2674,-0.98228 -3.5,-0.57143 -1.95757,0.65253 -3.28283,2.33449 -4.28571,4.28572 -1.00288,1.95122 -1.72763,4.21218 -2.21429,6.42857 -0.9733,4.43275 -1.14285,8.57143 -1.14285,8.57143 l 2.28571,0.14285 c 0,0 0.14949,-4.01529 1.07143,-8.21428 0.46098,-2.0995 1.14217,-4.25957 2,-5.92857 0.85783,-1.66901 1.89097,-2.77317 3,-3.14286 0.48169,-0.16046 0.91145,-0.0606 1.57143,0.35714 0.65998,0.41765 1.41316,1.20841 2.21428,2.14286 1.60224,1.86887 3.31095,4.3472 5.28572,6 0.98738,0.8264 2.06942,1.47735 3.35714,1.57143 1.28773,0.0942 2.6077,-0.44101 3.78572,-1.57143 2.11771,-2.03218 4.11437,-6.04665 6.28571,-12.92857 l 0,-2.5 -1.42857,-0.42857 z"
       id="path5110"
       style="color:#000000;font-style:normal;font-variant:normal;font-weight:normal;font-stretch:normal;font-size:medium;line-height:normal;font-family:Sans;-inkscape-font-specification:Sans;text-indent:0;text-align:start;text-decoration:none;text-decoration-line:none;letter-spacing:normal;word-spacing:normal;text-transform:none;direction:ltr;block-progression:tb;writing-mode:lr-tb;baseline-shift:baseline;text-anchor:start;display:inline;overflow:visible;visibility:visible;fill:#808080;fill-opacity:1;stroke:none;stroke-width:1;marker:none;enable-background:accumulate" />
  </g>
  <g
     inkscape:groupmode="layer"
     id="layer10"
     inkscape:label="preferences"
     transform="translate(140,-44)" />
  <g
     inkscape:groupmode="layer"
     id="layer1"
     inkscape:label="stock"
     transform="translate(140,-44)" />
</svg>
