<?xml version="1.0" encoding="UTF-8" standalone="no"?>
<!-- Created with Inkscape (http://www.inkscape.org/) -->

<svg
   xmlns:dc="http://purl.org/dc/elements/1.1/"
   xmlns:cc="http://creativecommons.org/ns#"
   xmlns:rdf="http://www.w3.org/1999/02/22-rdf-syntax-ns#"
   xmlns:svg="http://www.w3.org/2000/svg"
   xmlns="http://www.w3.org/2000/svg"
   xmlns:sodipodi="http://sodipodi.sourceforge.net/DTD/sodipodi-0.dtd"
   xmlns:inkscape="http://www.inkscape.org/namespaces/inkscape"
   sodipodi:docname="intelligent-scissors.svg"
   height="32"
   id="svg7384"
   inkscape:version="0.91 r13725"
   version="1.1"
   width="32">
  <metadata
     id="metadata90">
    <rdf:RDF>
      <cc:Work
         rdf:about="">
        <dc:format>image/svg+xml</dc:format>
        <dc:type
           rdf:resource="http://purl.org/dc/dcmitype/StillImage" />
        <dc:title>Gnome Symbolic Icon Theme</dc:title>
      </cc:Work>
    </rdf:RDF>
  </metadata>
  <sodipodi:namedview
     inkscape:bbox-nodes="true"
     inkscape:bbox-paths="true"
     bordercolor="#666666"
     borderopacity="1"
     inkscape:current-layer="layer9"
     inkscape:cx="48.47933"
     inkscape:cy="19.932955"
     gridtolerance="10"
     inkscape:guide-bbox="true"
     guidetolerance="10"
     id="namedview88"
     inkscape:object-nodes="false"
     inkscape:object-paths="false"
     objecttolerance="10"
     pagecolor="#433342"
     inkscape:pageopacity="1"
     inkscape:pageshadow="2"
     showborder="false"
     showgrid="false"
     showguides="true"
     inkscape:snap-bbox="true"
     inkscape:snap-bbox-midpoints="false"
     inkscape:snap-global="true"
     inkscape:snap-grids="true"
     inkscape:snap-nodes="true"
     inkscape:snap-others="false"
     inkscape:snap-page="false"
     inkscape:snap-to-guides="true"
     inkscape:window-height="1311"
     inkscape:window-maximized="1"
     inkscape:window-width="2560"
     inkscape:window-x="0"
     inkscape:window-y="55"
     inkscape:zoom="4">
    <inkscape:grid
       empspacing="2"
       enabled="true"
       id="grid4866"
       originx="140px"
       originy="0px"
       snapvisiblegridlinesonly="true"
       spacingx="1px"
       spacingy="1px"
       type="xygrid"
       visible="true" />
  </sodipodi:namedview>
  <title
     id="title9167">Gnome Symbolic Icon Theme</title>
  <defs
     id="defs7386" />
  <g
     inkscape:groupmode="layer"
     id="layer9"
     inkscape:label="tools"
     style="display:inline"
     transform="translate(-101.0002,-201)">
    <path
       inkscape:connector-curvature="0"
       d="m 107.2706,205.26666 c -1.9385,0.81773 -2.57116,2.59663 -1.45199,4.01297 l 8.08066,10.7474 -3.1923,3.49519 2.58503,3.07778 2.94308,-3.66703 2.88598,3.66703 2.56134,-2.94731 -3.11151,-3.62566 8.08066,-10.7474 c 1.11919,-1.41634 0.48649,-3.19524 -1.45201,-4.01297 l -8.96446,11.8083 -8.96448,-11.8083 z"
       id="rect4875"
       sodipodi:nodetypes="ccccccccccccc"
       style="fill:#808080;fill-opacity:1;stroke:none" />
    <path
       inkscape:connector-curvature="0"
       d="m 124.46687,220.2 c -3.53461,0 -6.4,2.86539 -6.4,6.4 0,3.53461 2.86539,6.4 6.4,6.4 3.53461,0 6.4,-2.86539 6.4,-6.4 0,-3.53461 -2.86539,-6.4 -6.4,-6.4 z m 0,4.26667 c 1.1782,0 2.13333,0.95511 2.13333,2.13333 0,1.1782 -0.95513,2.13333 -2.13333,2.13333 -1.1782,0 -2.13333,-0.95513 -2.13333,-2.13333 0,-1.17822 0.95513,-2.13333 2.13333,-2.13333 z"
       id="path12605"
       style="fill:#808080;fill-opacity:1;stroke:none" />
    <path
       inkscape:connector-curvature="0"
       d="m 107.4002,220.2 c -3.53461,0 -6.4,2.86539 -6.4,6.4 0,3.53461 2.86539,6.4 6.4,6.4 3.53461,0 6.4,-2.86539 6.4,-6.4 0,-3.53461 -2.86539,-6.4 -6.4,-6.4 z m 0,4.26667 c 1.1782,0 2.13333,0.95511 2.13333,2.13333 0,1.1782 -0.95513,2.13333 -2.13333,2.13333 -1.1782,0 -2.13333,-0.95513 -2.13333,-2.13333 0,-1.17822 0.95513,-2.13333 2.13333,-2.13333 z"
       id="path12608"
       style="fill:#808080;fill-opacity:1;stroke:none" />
    <rect
       height="2.1333337"
       id="rect12610"
       style="fill:#808080;fill-opacity:1;stroke:none"
       width="2.1333337"
       x="113.8002"
       y="209.53333" />
    <rect
       height="2.1333337"
       id="rect12612"
       style="fill:#808080;fill-opacity:1;stroke:none"
       width="2.1333337"
       x="113.8002"
       y="205.26666" />
    <rect
       height="2.1333337"
       id="rect12614"
       style="fill:#808080;fill-opacity:1;stroke:none"
       width="2.1333337"
       x="113.8002"
       y="201" />
    <rect
       height="2.1333337"
       id="rect12616"
       style="fill:#808080;fill-opacity:1;stroke:none"
       width="2.1333337"
       x="118.06686"
       y="201" />
    <rect
       height="2.1333337"
       id="rect12618"
       style="fill:#808080;fill-opacity:1;stroke:none"
       width="2.1333337"
       x="122.33353"
       y="201" />
    <rect
       height="2.1333337"
       id="rect12620"
       style="fill:#808080;fill-opacity:1;stroke:none"
       width="2.1333337"
       x="126.6002"
       y="201" />
    <rect
       height="2.1333337"
       id="rect12622"
       style="fill:#808080;fill-opacity:1;stroke:none"
       width="2.1333337"
       x="130.86687"
       y="201" />
  </g>
  <g
     inkscape:groupmode="layer"
     id="layer10"
     inkscape:label="preferences"
     transform="translate(140,16)" />
  <g
     inkscape:groupmode="layer"
     id="layer1"
     inkscape:label="stock"
     transform="translate(140,16)" />
</svg>
