<?xml version="1.0" encoding="UTF-8" standalone="no"?>
<!-- Created with Inkscape (http://www.inkscape.org/) -->

<svg
   xmlns:dc="http://purl.org/dc/elements/1.1/"
   xmlns:cc="http://creativecommons.org/ns#"
   xmlns:rdf="http://www.w3.org/1999/02/22-rdf-syntax-ns#"
   xmlns:svg="http://www.w3.org/2000/svg"
   xmlns="http://www.w3.org/2000/svg"
   xmlns:sodipodi="http://sodipodi.sourceforge.net/DTD/sodipodi-0.dtd"
   xmlns:inkscape="http://www.inkscape.org/namespaces/inkscape"
   sodipodi:docname="select-lasso.svg"
   height="32"
   id="svg7384"
   inkscape:version="0.91 r13725"
   version="1.1"
   width="32">
  <metadata
     id="metadata90">
    <rdf:RDF>
      <cc:Work
         rdf:about="">
        <dc:format>image/svg+xml</dc:format>
        <dc:type
           rdf:resource="http://purl.org/dc/dcmitype/StillImage" />
        <dc:title>Gnome Symbolic Icon Theme</dc:title>
      </cc:Work>
    </rdf:RDF>
  </metadata>
  <sodipodi:namedview
     inkscape:bbox-nodes="true"
     inkscape:bbox-paths="true"
     bordercolor="#666666"
     borderopacity="1"
     inkscape:current-layer="layer9"
     inkscape:cx="-80.52067"
     inkscape:cy="2.432955"
     gridtolerance="10"
     inkscape:guide-bbox="true"
     guidetolerance="10"
     id="namedview88"
     inkscape:object-nodes="false"
     inkscape:object-paths="false"
     objecttolerance="10"
     pagecolor="#433342"
     inkscape:pageopacity="1"
     inkscape:pageshadow="2"
     showborder="false"
     showgrid="false"
     showguides="true"
     inkscape:snap-bbox="true"
     inkscape:snap-bbox-midpoints="false"
     inkscape:snap-global="true"
     inkscape:snap-grids="true"
     inkscape:snap-nodes="true"
     inkscape:snap-others="false"
     inkscape:snap-page="false"
     inkscape:snap-to-guides="true"
     inkscape:window-height="1311"
     inkscape:window-maximized="1"
     inkscape:window-width="2560"
     inkscape:window-x="0"
     inkscape:window-y="55"
     inkscape:zoom="4">
    <inkscape:grid
       empspacing="2"
       enabled="true"
       id="grid4866"
       originx="200px"
       originy="40px"
       snapvisiblegridlinesonly="true"
       spacingx="1px"
       spacingy="1px"
       type="xygrid"
       visible="true" />
  </sodipodi:namedview>
  <title
     id="title9167">Gnome Symbolic Icon Theme</title>
  <defs
     id="defs7386" />
  <g
     inkscape:groupmode="layer"
     id="layer9"
     inkscape:label="tools"
     style="display:inline"
     transform="translate(-41.0002,-241)">
    <path
       inkscape:connector-curvature="0"
       d="m 59.823602,241.00066 c -1.012087,-0.008 -2.098124,0.0611 -3.161225,0.19344 -8.504846,1.0599 -15.043715,6.42743 -14.644859,11.99975 0.398857,5.57233 7.559338,9.18873 16.064185,8.12887 8.504846,-1.0599 15.108229,-6.42741 14.709373,-11.99975 -0.348999,-4.87567 -5.882903,-8.256 -12.967474,-8.32231 z m -0.387089,3.09671 c 2.847756,0.0233 5.359828,0.64422 7.225658,1.67739 1.86585,1.03316 3.085458,2.47862 3.225739,4.19346 0.320654,3.91963 -4.968898,7.70589 -11.806207,8.45144 -6.837309,0.74554 -12.64682,-1.82219 -12.967474,-5.74182 -0.320654,-3.91963 4.968898,-7.7059 11.806207,-8.45144 0.854672,-0.0931 1.702427,-0.13564 2.516077,-0.12903 z"
       id="path4672"
       style="fill:#808080;fill-opacity:1;stroke:none" />
    <path
       inkscape:connector-curvature="0"
       d="m 49.243176,254.41974 c -2.280356,0 -4.128947,1.84859 -4.128947,4.12895 0,2.28035 1.848591,4.12894 4.128947,4.12894 2.280355,0 4.128947,-1.84859 4.128947,-4.12894 0,-2.28036 -1.848592,-4.12895 -4.128947,-4.12895 z m 0,2.06447 c 1.140167,0 2.064473,0.92431 2.064473,2.06448 0,1.14016 -0.924306,2.06447 -2.064473,2.06447 -1.140168,0 -2.064474,-0.92431 -2.064474,-2.06447 0,-1.14017 0.924306,-2.06448 2.064474,-2.06448 z"
       id="path4660"
       style="fill:#808080;fill-opacity:1;stroke:none" />
    <path
       inkscape:connector-curvature="0"
       d="m 49.243176,260.61316 c 0,0 9.096586,6.19342 0,12.38684 l 4.193461,0 c 7.548231,-5.25431 -0.03227,-12.38684 -0.03227,-12.38684 z"
       id="path4664"
       sodipodi:nodetypes="ccccc"
       style="fill:#808080;fill-opacity:1;stroke:none" />
  </g>
  <g
     inkscape:groupmode="layer"
     id="layer10"
     inkscape:label="preferences"
     transform="translate(200,-24)" />
  <g
     inkscape:groupmode="layer"
     id="layer1"
     inkscape:label="stock"
     transform="translate(200,-24)" />
</svg>
